<svg xmlns="http://www.w3.org/2000/svg" width="500" height="500">
<rect width="500" height="500" fill="#1a1a2e"/>
<circle cx="250" cy="250" r="240" fill="#16213e" stroke="#e94560" stroke-width="2"/>
<line x1="10" y1="250" x2="490" y2="250" stroke="#ffffff22" stroke-width="1"/>
<line x1="250" y1="10" x2="250" y2="490" stroke="#ffffff22" stroke-width="1"/><circle cx="370.00" cy="250.00" r="6" fill="#e94560"/>
<text x="378.00" y="242.00" fill="white" font-size="14" font-family="monospace">p</text><circle cx="416.96" cy="250.00" r="6" fill="#e94560"/>
<text x="424.96" y="242.00" fill="white" font-size="14" font-family="monospace">translated</text><circle cx="334.85" cy="165.15" r="6" fill="#e94560"/>
<text x="342.85" y="157.15" fill="white" font-size="14" font-family="monospace">rotated</text><circle cx="368.06" cy="131.94" r="6" fill="#e94560"/>
<text x="376.06" y="123.94" fill="white" font-size="14" font-family="monospace">T+R</text><circle cx="397.81" cy="187.46" r="6" fill="#e94560"/>
<text x="405.81" y="179.46" fill="white" font-size="14" font-family="monospace">R+T</text><circle cx="130.00" cy="250.00" r="6" fill="#e94560"/>
<text x="138.00" y="242.00" fill="white" font-size="14" font-family="monospace">a</text><circle cx="250.00" cy="130.00" r="6" fill="#e94560"/>
<text x="258.00" y="122.00" fill="white" font-size="14" font-family="monospace">b</text><circle cx="178.00" cy="394.00" r="6" fill="#e94560"/>
<text x="186.00" y="386.00" fill="white" font-size="14" font-family="monospace">c</text><circle cx="394.00" cy="346.00" r="6" fill="#e94560"/>
<text x="402.00" y="338.00" fill="white" font-size="14" font-family="monospace">d</text><circle cx="82.00" cy="178.00" r="6" fill="#e94560"/>
<text x="90.00" y="170.00" fill="white" font-size="14" font-family="monospace">e</text><path d="M 370.00 250.00 L 367.58 250.00 L 365.15 250.00 L 362.73 250.00 L 360.30 250.00 L 357.88 250.00 L 355.45 250.00 L 353.03 250.00 L 350.61 250.00 L 348.18 250.00 L 345.76 250.00 L 343.33 250.00 L 340.91 250.00 L 338.48 250.00 L 336.06 250.00 L 333.64 250.00 L 331.21 250.00 L 328.79 250.00 L 326.36 250.00 L 323.94 250.00 L 321.52 250.00 L 319.09 250.00 L 316.67 250.00 L 314.24 250.00 L 311.82 250.00 L 309.39 250.00 L 306.97 250.00 L 304.55 250.00 L 302.12 250.00 L 299.70 250.00 L 297.27 250.00 L 294.85 250.00 L 292.42 250.00 L 290.00 250.00 L 287.58 250.00 L 285.15 250.00 L 282.73 250.00 L 280.30 250.00 L 277.88 250.00 L 275.45 250.00 L 273.03 250.00 L 270.61 250.00 L 268.18 250.00 L 265.76 250.00 L 263.33 250.00 L 260.91 250.00 L 258.48 250.00 L 256.06 250.00 L 253.64 250.00 L 251.21 250.00 L 248.79 250.00 L 246.36 250.00 L 243.94 250.00 L 241.52 250.00 L 239.09 250.00 L 236.67 250.00 L 234.24 250.00 L 231.82 250.00 L 229.39 250.00 L 226.97 250.00 L 224.55 250.00 L 222.12 250.00 L 219.70 250.00 L 217.27 250.00 L 214.85 250.00 L 212.42 250.00 L 210.00 250.00 L 207.58 250.00 L 205.15 250.00 L 202.73 250.00 L 200.30 250.00 L 197.88 250.00 L 195.45 250.00 L 193.03 250.00 L 190.61 250.00 L 188.18 250.00 L 185.76 250.00 L 183.33 250.00 L 180.91 250.00 L 178.48 250.00 L 176.06 250.00 L 173.64 250.00 L 171.21 250.00 L 168.79 250.00 L 166.36 250.00 L 163.94 250.00 L 161.52 250.00 L 159.09 250.00 L 156.67 250.00 L 154.24 250.00 L 151.82 250.00 L 149.39 250.00 L 146.97 250.00 L 144.55 250.00 L 142.12 250.00 L 139.70 250.00 L 137.27 250.00 L 134.85 250.00 L 132.42 250.00 L 130.00 250.00" stroke="#e94560" stroke-width="1.5" fill="none" opacity="0.6"/><path d="M 370.00 250.00 L 369.11 248.52 L 368.20 247.04 L 367.29 245.57 L 366.38 244.10 L 365.45 242.63 L 364.52 241.17 L 363.59 239.72 L 362.64 238.27 L 361.69 236.82 L 360.73 235.38 L 359.76 233.94 L 358.79 232.51 L 357.81 231.08 L 356.82 229.66 L 355.82 228.25 L 354.82 226.83 L 353.81 225.43 L 352.80 224.02 L 351.77 222.63 L 350.74 221.24 L 349.71 219.85 L 348.66 218.47 L 347.61 217.09 L 346.56 215.72 L 345.49 214.35 L 344.42 212.99 L 343.34 211.64 L 342.26 210.29 L 341.17 208.94 L 340.07 207.60 L 338.97 206.27 L 337.86 204.94 L 336.74 203.62 L 335.62 202.30 L 334.49 200.99 L 333.35 199.68 L 332.21 198.38 L 331.06 197.09 L 329.90 195.80 L 328.74 194.51 L 327.57 193.24 L 326.40 191.96 L 325.22 190.70 L 324.03 189.44 L 322.83 188.18 L 321.63 186.94 L 320.43 185.69 L 319.22 184.46 L 318.00 183.23 L 316.77 182.00 L 315.54 180.78 L 314.31 179.57 L 313.06 178.37 L 311.82 177.17 L 310.56 175.97 L 309.30 174.78 L 308.04 173.60 L 306.76 172.43 L 305.49 171.26 L 304.20 170.10 L 302.91 168.94 L 301.62 167.79 L 300.32 166.65 L 299.01 165.51 L 297.70 164.38 L 296.38 163.26 L 295.06 162.14 L 293.73 161.03 L 292.40 159.93 L 291.06 158.83 L 289.71 157.74 L 288.36 156.66 L 287.01 155.58 L 285.65 154.51 L 284.28 153.44 L 282.91 152.39 L 281.53 151.34 L 280.15 150.29 L 278.76 149.26 L 277.37 148.23 L 275.98 147.20 L 274.57 146.19 L 273.17 145.18 L 271.75 144.18 L 270.34 143.18 L 268.92 142.19 L 267.49 141.21 L 266.06 140.24 L 264.62 139.27 L 263.18 138.31 L 261.73 137.36 L 260.28 136.41 L 258.83 135.48 L 257.37 134.55 L 255.90 133.62 L 254.43 132.71 L 252.96 131.80 L 251.48 130.89 L 250.00 130.00" stroke="#e94560" stroke-width="1.5" fill="none" opacity="0.6"/><path d="M 130.00 250.00 L 130.89 248.52 L 131.80 247.04 L 132.71 245.57 L 133.62 244.10 L 134.55 242.63 L 135.48 241.17 L 136.41 239.72 L 137.36 238.27 L 138.31 236.82 L 139.27 235.38 L 140.24 233.94 L 141.21 232.51 L 142.19 231.08 L 143.18 229.66 L 144.18 228.25 L 145.18 226.83 L 146.19 225.43 L 147.20 224.02 L 148.23 222.63 L 149.26 221.24 L 150.29 219.85 L 151.34 218.47 L 152.39 217.09 L 153.44 215.72 L 154.51 214.35 L 155.58 212.99 L 156.66 211.64 L 157.74 210.29 L 158.83 208.94 L 159.93 207.60 L 161.03 206.27 L 162.14 204.94 L 163.26 203.62 L 164.38 202.30 L 165.51 200.99 L 166.65 199.68 L 167.79 198.38 L 168.94 197.09 L 170.10 195.80 L 171.26 194.51 L 172.43 193.24 L 173.60 191.96 L 174.78 190.70 L 175.97 189.44 L 177.17 188.18 L 178.37 186.94 L 179.57 185.69 L 180.78 184.46 L 182.00 183.23 L 183.23 182.00 L 184.46 180.78 L 185.69 179.57 L 186.94 178.37 L 188.18 177.17 L 189.44 175.97 L 190.70 174.78 L 191.96 173.60 L 193.24 172.43 L 194.51 171.26 L 195.80 170.10 L 197.09 168.94 L 198.38 167.79 L 199.68 166.65 L 200.99 165.51 L 202.30 164.38 L 203.62 163.26 L 204.94 162.14 L 206.27 161.03 L 207.60 159.93 L 208.94 158.83 L 210.29 157.74 L 211.64 156.66 L 212.99 155.58 L 214.35 154.51 L 215.72 153.44 L 217.09 152.39 L 218.47 151.34 L 219.85 150.29 L 221.24 149.26 L 222.63 148.23 L 224.02 147.20 L 225.43 146.19 L 226.83 145.18 L 228.25 144.18 L 229.66 143.18 L 231.08 142.19 L 232.51 141.21 L 233.94 140.24 L 235.38 139.27 L 236.82 138.31 L 238.27 137.36 L 239.72 136.41 L 241.17 135.48 L 242.63 134.55 L 244.10 133.62 L 245.57 132.71 L 247.04 131.80 L 248.52 130.89 L 250.00 130.00" stroke="#e94560" stroke-width="1.5" fill="none" opacity="0.6"/><path d="M 130.00 250.00 L 130.11 251.55 L 130.22 253.09 L 130.35 254.64 L 130.48 256.18 L 130.62 257.73 L 130.76 259.27 L 130.92 260.81 L 131.08 262.35 L 131.25 263.89 L 131.43 265.43 L 131.62 266.97 L 131.81 268.51 L 132.01 270.05 L 132.22 271.58 L 132.44 273.12 L 132.67 274.65 L 132.90 276.18 L 133.14 277.71 L 133.39 279.24 L 133.65 280.77 L 133.92 282.30 L 134.19 283.82 L 134.47 285.35 L 134.76 286.87 L 135.06 288.39 L 135.36 289.91 L 135.68 291.43 L 136.00 292.95 L 136.33 294.46 L 136.66 295.97 L 137.01 297.48 L 137.36 298.99 L 137.72 300.50 L 138.08 302.01 L 138.46 303.51 L 138.84 305.01 L 139.23 306.51 L 139.63 308.01 L 140.04 309.51 L 140.45 311.00 L 140.87 312.49 L 141.30 313.98 L 141.74 315.47 L 142.18 316.95 L 142.63 318.44 L 143.09 319.92 L 143.56 321.39 L 144.04 322.87 L 144.52 324.34 L 145.01 325.81 L 145.51 327.28 L 146.01 328.75 L 146.53 330.21 L 147.05 331.67 L 147.57 333.13 L 148.11 334.58 L 148.65 336.03 L 149.20 337.48 L 149.76 338.93 L 150.33 340.37 L 150.90 341.81 L 151.48 343.25 L 152.07 344.68 L 152.66 346.12 L 153.26 347.54 L 153.87 348.97 L 154.49 350.39 L 155.11 351.81 L 155.75 353.22 L 156.38 354.64 L 157.03 356.05 L 157.68 357.45 L 158.34 358.85 L 159.01 360.25 L 159.69 361.65 L 160.37 363.04 L 161.06 364.43 L 161.76 365.81 L 162.46 367.19 L 163.17 368.57 L 163.89 369.94 L 164.61 371.31 L 165.34 372.68 L 166.08 374.04 L 166.83 375.40 L 167.58 376.76 L 168.34 378.11 L 169.11 379.45 L 169.88 380.80 L 170.66 382.14 L 171.45 383.47 L 172.25 384.80 L 173.05 386.13 L 173.86 387.45 L 174.67 388.77 L 175.49 390.08 L 176.32 391.39 L 177.16 392.70 L 178.00 394.00" stroke="#e94560" stroke-width="1.5" fill="none" opacity="0.6"/><path d="M 250.00 130.00 L 252.17 131.57 L 254.33 133.16 L 256.47 134.77 L 258.61 136.39 L 260.73 138.02 L 262.84 139.67 L 264.94 141.34 L 267.02 143.02 L 269.10 144.72 L 271.16 146.43 L 273.21 148.16 L 275.24 149.90 L 277.27 151.65 L 279.28 153.42 L 281.28 155.21 L 283.26 157.01 L 285.23 158.82 L 287.19 160.65 L 289.14 162.49 L 291.07 164.35 L 292.99 166.22 L 294.89 168.10 L 296.78 170.00 L 298.66 171.91 L 300.53 173.84 L 302.38 175.77 L 304.21 177.73 L 306.03 179.69 L 307.84 181.67 L 309.63 183.66 L 311.41 185.67 L 313.17 187.68 L 314.92 189.71 L 316.66 191.75 L 318.38 193.81 L 320.08 195.88 L 321.77 197.96 L 323.44 200.05 L 325.10 202.15 L 326.75 204.27 L 328.38 206.40 L 329.99 208.54 L 331.59 210.69 L 333.17 212.85 L 334.73 215.02 L 336.28 217.21 L 337.82 219.40 L 339.34 221.61 L 340.84 223.83 L 342.33 226.06 L 343.80 228.30 L 345.25 230.55 L 346.69 232.81 L 348.11 235.08 L 349.51 237.36 L 350.90 239.66 L 352.27 241.96 L 353.63 244.27 L 354.96 246.59 L 356.28 248.92 L 357.59 251.26 L 358.88 253.61 L 360.14 255.97 L 361.40 258.34 L 362.63 260.72 L 363.85 263.10 L 365.05 265.50 L 366.24 267.90 L 367.40 270.32 L 368.55 272.74 L 369.68 275.17 L 370.80 277.60 L 371.89 280.05 L 372.97 282.50 L 374.03 284.96 L 375.07 287.43 L 376.10 289.91 L 377.10 292.39 L 378.09 294.88 L 379.06 297.38 L 380.01 299.88 L 380.95 302.39 L 381.86 304.91 L 382.76 307.43 L 383.64 309.97 L 384.50 312.50 L 385.34 315.05 L 386.17 317.60 L 386.97 320.15 L 387.76 322.71 L 388.53 325.28 L 389.28 327.85 L 390.01 330.43 L 390.72 333.01 L 391.41 335.60 L 392.09 338.19 L 392.74 340.79 L 393.38 343.39 L 394.00 346.00" stroke="#e94560" stroke-width="1.5" fill="none" opacity="0.6"/><path d="M 178.00 394.00 L 180.26 394.46 L 182.52 394.91 L 184.78 395.33 L 187.05 395.73 L 189.32 396.12 L 191.60 396.48 L 193.87 396.83 L 196.15 397.16 L 198.44 397.46 L 200.72 397.75 L 203.01 398.02 L 205.30 398.27 L 207.60 398.49 L 209.89 398.70 L 212.19 398.89 L 214.48 399.06 L 216.78 399.21 L 219.08 399.34 L 221.38 399.45 L 223.69 399.54 L 225.99 399.61 L 228.29 399.66 L 230.60 399.69 L 232.90 399.70 L 235.20 399.69 L 237.51 399.66 L 239.81 399.61 L 242.11 399.55 L 244.41 399.46 L 246.72 399.35 L 249.02 399.22 L 251.32 399.07 L 253.61 398.91 L 255.91 398.72 L 258.20 398.51 L 260.50 398.29 L 262.79 398.04 L 265.08 397.78 L 267.36 397.49 L 269.65 397.18 L 271.93 396.86 L 274.20 396.52 L 276.48 396.15 L 278.75 395.77 L 281.02 395.37 L 283.28 394.94 L 285.55 394.50 L 287.80 394.04 L 290.06 393.56 L 292.30 393.06 L 294.55 392.54 L 296.79 392.00 L 299.02 391.45 L 301.26 390.87 L 303.48 390.27 L 305.70 389.66 L 307.92 389.02 L 310.13 388.37 L 312.33 387.70 L 314.53 387.01 L 316.72 386.30 L 318.90 385.57 L 321.08 384.82 L 323.26 384.06 L 325.42 383.27 L 327.58 382.47 L 329.73 381.65 L 331.88 380.81 L 334.02 379.95 L 336.15 379.07 L 338.27 378.18 L 340.38 377.26 L 342.49 376.33 L 344.59 375.38 L 346.68 374.41 L 348.76 373.43 L 350.84 372.43 L 352.90 371.41 L 354.96 370.37 L 357.01 369.31 L 359.05 368.24 L 361.07 367.14 L 363.09 366.04 L 365.10 364.91 L 367.10 363.77 L 369.09 362.61 L 371.07 361.43 L 373.04 360.23 L 375.00 359.02 L 376.95 357.79 L 378.89 356.55 L 380.82 355.29 L 382.74 354.01 L 384.64 352.72 L 386.54 351.40 L 388.42 350.08 L 390.29 348.73 L 392.15 347.38 L 394.00 346.00" stroke="#e94560" stroke-width="1.5" fill="none" opacity="0.6"/><path d="M 394.00 346.00 L 390.54 345.00 L 387.08 343.98 L 383.62 342.94 L 380.17 341.89 L 376.72 340.83 L 373.28 339.75 L 369.84 338.66 L 366.41 337.55 L 362.98 336.43 L 359.56 335.29 L 356.14 334.14 L 352.73 332.97 L 349.32 331.79 L 345.92 330.59 L 342.52 329.38 L 339.13 328.15 L 335.75 326.91 L 332.36 325.66 L 328.99 324.39 L 325.62 323.10 L 322.25 321.80 L 318.89 320.49 L 315.54 319.16 L 312.19 317.82 L 308.85 316.46 L 305.52 315.09 L 302.19 313.70 L 298.86 312.30 L 295.54 310.89 L 292.23 309.46 L 288.93 308.01 L 285.63 306.56 L 282.34 305.08 L 279.05 303.60 L 275.77 302.10 L 272.50 300.58 L 269.23 299.05 L 265.97 297.51 L 262.72 295.95 L 259.47 294.38 L 256.23 292.80 L 253.00 291.20 L 249.77 289.58 L 246.55 287.96 L 243.34 286.32 L 240.13 284.66 L 236.94 282.99 L 233.75 281.31 L 230.56 279.61 L 227.39 277.90 L 224.22 276.18 L 221.06 274.44 L 217.91 272.69 L 214.76 270.93 L 211.62 269.15 L 208.49 267.36 L 205.37 265.55 L 202.25 263.73 L 199.15 261.90 L 196.05 260.06 L 192.96 258.20 L 189.88 256.32 L 186.80 254.44 L 183.73 252.54 L 180.68 250.63 L 177.63 248.70 L 174.58 246.76 L 171.55 244.81 L 168.53 242.85 L 165.51 240.87 L 162.50 238.88 L 159.50 236.87 L 156.51 234.86 L 153.53 232.83 L 150.56 230.78 L 147.60 228.73 L 144.64 226.66 L 141.70 224.58 L 138.76 222.48 L 135.83 220.38 L 132.91 218.26 L 130.00 216.13 L 127.10 213.98 L 124.21 211.83 L 121.33 209.66 L 118.46 207.48 L 115.60 205.28 L 112.74 203.07 L 109.90 200.86 L 107.06 198.63 L 104.24 196.38 L 101.43 194.13 L 98.62 191.86 L 95.83 189.58 L 93.04 187.29 L 90.27 184.98 L 87.50 182.67 L 84.75 180.34 L 82.00 178.00" stroke="#e94560" stroke-width="1.5" fill="none" opacity="0.6"/><path d="M 130.00 250.00 L 129.44 249.33 L 128.88 248.66 L 128.32 247.98 L 127.76 247.31 L 127.20 246.63 L 126.65 245.95 L 126.09 245.27 L 125.54 244.59 L 124.99 243.91 L 124.44 243.23 L 123.89 242.55 L 123.35 241.86 L 122.80 241.18 L 122.26 240.49 L 121.72 239.80 L 121.18 239.11 L 120.64 238.42 L 120.11 237.73 L 119.57 237.03 L 119.04 236.34 L 118.50 235.64 L 117.97 234.95 L 117.45 234.25 L 116.92 233.55 L 116.39 232.85 L 115.87 232.15 L 115.35 231.44 L 114.82 230.74 L 114.30 230.04 L 113.79 229.33 L 113.27 228.62 L 112.76 227.91 L 112.24 227.20 L 111.73 226.49 L 111.22 225.78 L 110.71 225.07 L 110.21 224.35 L 109.70 223.64 L 109.20 222.92 L 108.69 222.20 L 108.19 221.48 L 107.70 220.76 L 107.20 220.04 L 106.70 219.32 L 106.21 218.60 L 105.72 217.87 L 105.23 217.15 L 104.74 216.42 L 104.25 215.69 L 103.76 214.96 L 103.28 214.23 L 102.80 213.50 L 102.32 212.77 L 101.84 212.04 L 101.36 211.30 L 100.88 210.57 L 100.41 209.83 L 99.94 209.10 L 99.46 208.36 L 99.00 207.62 L 98.53 206.88 L 98.06 206.14 L 97.60 205.39 L 97.13 204.65 L 96.67 203.91 L 96.21 203.16 L 95.76 202.41 L 95.30 201.67 L 94.84 200.92 L 94.39 200.17 L 93.94 199.42 L 93.49 198.66 L 93.04 197.91 L 92.60 197.16 L 92.15 196.40 L 91.71 195.65 L 91.27 194.89 L 90.83 194.13 L 90.39 193.37 L 89.96 192.61 L 89.52 191.85 L 89.09 191.09 L 88.66 190.33 L 88.23 189.57 L 87.80 188.80 L 87.38 188.04 L 86.95 187.27 L 86.53 186.50 L 86.11 185.73 L 85.69 184.96 L 85.27 184.19 L 84.86 183.42 L 84.45 182.65 L 84.03 181.88 L 83.62 181.10 L 83.21 180.33 L 82.81 179.55 L 82.40 178.78 L 82.00 178.00" stroke="#e94560" stroke-width="1.5" fill="none" opacity="0.6"/><path d="M 250.00 130.00 L 248.73 132.48 L 247.46 134.96 L 246.21 137.44 L 244.97 139.94 L 243.74 142.43 L 242.51 144.94 L 241.30 147.45 L 240.10 149.96 L 238.92 152.48 L 237.74 155.00 L 236.57 157.53 L 235.41 160.06 L 234.27 162.60 L 233.13 165.14 L 232.01 167.69 L 230.90 170.24 L 229.79 172.80 L 228.70 175.36 L 227.62 177.93 L 226.55 180.50 L 225.49 183.07 L 224.45 185.65 L 223.41 188.24 L 222.38 190.83 L 221.37 193.42 L 220.37 196.02 L 219.37 198.62 L 218.39 201.23 L 217.42 203.84 L 216.46 206.45 L 215.52 209.07 L 214.58 211.69 L 213.65 214.32 L 212.74 216.95 L 211.84 219.58 L 210.95 222.22 L 210.07 224.86 L 209.20 227.51 L 208.34 230.16 L 207.49 232.81 L 206.66 235.47 L 205.83 238.13 L 205.02 240.79 L 204.22 243.46 L 203.43 246.13 L 202.65 248.80 L 201.88 251.48 L 201.13 254.16 L 200.38 256.84 L 199.65 259.53 L 198.93 262.22 L 198.22 264.91 L 197.52 267.61 L 196.83 270.31 L 196.16 273.01 L 195.50 275.71 L 194.84 278.42 L 194.20 281.13 L 193.57 283.84 L 192.96 286.56 L 192.35 289.28 L 191.76 292.00 L 191.17 294.72 L 190.60 297.45 L 190.04 300.17 L 189.50 302.90 L 188.96 305.64 L 188.43 308.37 L 187.92 311.11 L 187.42 313.85 L 186.93 316.59 L 186.45 319.33 L 185.99 322.08 L 185.53 324.82 L 185.09 327.57 L 184.66 330.32 L 184.24 333.08 L 183.83 335.83 L 183.44 338.59 L 183.05 341.35 L 182.68 344.11 L 182.32 346.87 L 181.97 349.63 L 181.63 352.40 L 181.31 355.16 L 181.00 357.93 L 180.70 360.70 L 180.41 363.47 L 180.13 366.24 L 179.86 369.01 L 179.61 371.78 L 179.36 374.56 L 179.13 377.33 L 178.92 380.11 L 178.71 382.88 L 178.51 385.66 L 178.33 388.44 L 178.16 391.22 L 178.00 394.00" stroke="#e94560" stroke-width="1.5" fill="none" opacity="0.6"/>
</svg>